<mxfile host="app.diagrams.net" modified="2024-03-22T21:02:09.045Z" agent="Mozilla/5.0 (Windows NT 10.0; Win64; x64) AppleWebKit/537.36 (KHTML, like Gecko) Chrome/122.0.0.0 Safari/537.36 Edg/122.0.0.0" etag="hsTiFZUZ_tKS8fJI6MDo" version="22.1.18" type="device">
  <diagram name="Page-1" id="qvDX5b71qm2DPa5u2FyU">
    <mxGraphModel dx="874" dy="583" grid="1" gridSize="10" guides="1" tooltips="1" connect="1" arrows="1" fold="1" page="1" pageScale="1" pageWidth="827" pageHeight="1169" math="0" shadow="0">
      <root>
        <mxCell id="0" />
        <mxCell id="1" parent="0" />
        <mxCell id="TXUJ-k7nRcwbZpUp4kUs-1" value="Initial State (Word generation)" style="ellipse;whiteSpace=wrap;html=1;aspect=fixed;" vertex="1" parent="1">
          <mxGeometry x="680" y="240" width="80" height="80" as="geometry" />
        </mxCell>
        <mxCell id="TXUJ-k7nRcwbZpUp4kUs-2" value="" style="endArrow=classic;html=1;rounded=0;entryX=0;entryY=0.5;entryDx=0;entryDy=0;" edge="1" parent="1" target="TXUJ-k7nRcwbZpUp4kUs-1">
          <mxGeometry width="50" height="50" relative="1" as="geometry">
            <mxPoint x="600" y="280" as="sourcePoint" />
            <mxPoint x="590" y="420" as="targetPoint" />
          </mxGeometry>
        </mxCell>
        <mxCell id="TXUJ-k7nRcwbZpUp4kUs-3" value="input" style="endArrow=classic;html=1;rounded=0;entryX=0;entryY=0.5;entryDx=0;entryDy=0;exitX=1;exitY=0.5;exitDx=0;exitDy=0;" edge="1" parent="1" source="TXUJ-k7nRcwbZpUp4kUs-1" target="TXUJ-k7nRcwbZpUp4kUs-4">
          <mxGeometry width="50" height="50" relative="1" as="geometry">
            <mxPoint x="810" y="439.5" as="sourcePoint" />
            <mxPoint x="910" y="439.5" as="targetPoint" />
          </mxGeometry>
        </mxCell>
        <mxCell id="TXUJ-k7nRcwbZpUp4kUs-4" value="Check" style="ellipse;whiteSpace=wrap;html=1;aspect=fixed;" vertex="1" parent="1">
          <mxGeometry x="840" y="240" width="80" height="80" as="geometry" />
        </mxCell>
        <mxCell id="TXUJ-k7nRcwbZpUp4kUs-5" value="[5,0]" style="endArrow=classic;html=1;rounded=0;exitX=0.5;exitY=1;exitDx=0;exitDy=0;entryX=0.5;entryY=0;entryDx=0;entryDy=0;" edge="1" parent="1" source="TXUJ-k7nRcwbZpUp4kUs-4" target="TXUJ-k7nRcwbZpUp4kUs-6">
          <mxGeometry width="50" height="50" relative="1" as="geometry">
            <mxPoint x="870" y="590" as="sourcePoint" />
            <mxPoint x="880" y="380" as="targetPoint" />
          </mxGeometry>
        </mxCell>
        <mxCell id="TXUJ-k7nRcwbZpUp4kUs-6" value="Win" style="ellipse;whiteSpace=wrap;html=1;aspect=fixed;" vertex="1" parent="1">
          <mxGeometry x="840" y="400" width="80" height="80" as="geometry" />
        </mxCell>
        <mxCell id="TXUJ-k7nRcwbZpUp4kUs-7" value="[Any]" style="endArrow=classic;html=1;rounded=0;entryX=1;entryY=0;entryDx=0;entryDy=0;exitX=1;exitY=0.5;exitDx=0;exitDy=0;edgeStyle=orthogonalEdgeStyle;curved=1;" edge="1" parent="1" target="TXUJ-k7nRcwbZpUp4kUs-4" source="TXUJ-k7nRcwbZpUp4kUs-4">
          <mxGeometry x="0.4656" y="5" width="50" height="50" relative="1" as="geometry">
            <mxPoint x="1170" y="350" as="sourcePoint" />
            <mxPoint x="1060" y="140" as="targetPoint" />
            <Array as="points">
              <mxPoint x="1080" y="220" />
            </Array>
            <mxPoint as="offset" />
          </mxGeometry>
        </mxCell>
        <mxCell id="TXUJ-k7nRcwbZpUp4kUs-9" value="lose" style="ellipse;whiteSpace=wrap;html=1;aspect=fixed;" vertex="1" parent="1">
          <mxGeometry x="1000" y="400" width="80" height="80" as="geometry" />
        </mxCell>
        <mxCell id="TXUJ-k7nRcwbZpUp4kUs-10" value="Guess = 6" style="endArrow=classic;html=1;rounded=0;exitX=1;exitY=1;exitDx=0;exitDy=0;entryX=0;entryY=0;entryDx=0;entryDy=0;" edge="1" parent="1" source="TXUJ-k7nRcwbZpUp4kUs-4" target="TXUJ-k7nRcwbZpUp4kUs-9">
          <mxGeometry width="50" height="50" relative="1" as="geometry">
            <mxPoint x="1000" y="520" as="sourcePoint" />
            <mxPoint x="1070" y="478" as="targetPoint" />
            <Array as="points" />
          </mxGeometry>
        </mxCell>
        <mxCell id="TXUJ-k7nRcwbZpUp4kUs-12" value="Number, String != 5, Empty&amp;nbsp;" style="endArrow=classic;html=1;rounded=0;exitX=0.5;exitY=0;exitDx=0;exitDy=0;entryX=0.5;entryY=1;entryDx=0;entryDy=0;" edge="1" parent="1" source="TXUJ-k7nRcwbZpUp4kUs-4" target="TXUJ-k7nRcwbZpUp4kUs-14">
          <mxGeometry width="50" height="50" relative="1" as="geometry">
            <mxPoint x="979.9957287525378" y="282.49572875253784" as="sourcePoint" />
            <mxPoint x="1016.1246454055274" y="190.00322702763629" as="targetPoint" />
            <Array as="points" />
          </mxGeometry>
        </mxCell>
        <mxCell id="TXUJ-k7nRcwbZpUp4kUs-14" value="notValidInput" style="ellipse;whiteSpace=wrap;html=1;aspect=fixed;" vertex="1" parent="1">
          <mxGeometry x="840" y="80" width="80" height="80" as="geometry" />
        </mxCell>
        <mxCell id="TXUJ-k7nRcwbZpUp4kUs-15" value="input" style="endArrow=classic;html=1;rounded=0;exitX=0;exitY=0.5;exitDx=0;exitDy=0;entryX=0;entryY=0;entryDx=0;entryDy=0;edgeStyle=orthogonalEdgeStyle;curved=1;" edge="1" parent="1" source="TXUJ-k7nRcwbZpUp4kUs-14" target="TXUJ-k7nRcwbZpUp4kUs-4">
          <mxGeometry width="50" height="50" relative="1" as="geometry">
            <mxPoint x="560" y="-56" as="sourcePoint" />
            <mxPoint x="691.7157287525379" y="125.71572875253787" as="targetPoint" />
            <Array as="points">
              <mxPoint x="760" y="120" />
              <mxPoint x="760" y="252" />
            </Array>
          </mxGeometry>
        </mxCell>
      </root>
    </mxGraphModel>
  </diagram>
</mxfile>
